HIERARCHY
ROOT Hips
{
	OFFSET 0.000000 8.830580 0.000000
	CHANNELS 6 Xposition Yposition Zposition Zrotation Yrotation Xrotation 
	JOINT Spine
	{
		OFFSET 0.000000 0.010000 0.000000
		CHANNELS 3 Zrotation Yrotation Xrotation
		JOINT Spine1
		{
			OFFSET 0.000000 2.459130 0.000000
			CHANNELS 3 Zrotation Yrotation Xrotation
			JOINT Neck
			{
				OFFSET 0.000000 2.484630 0.000000
				CHANNELS 3 Zrotation Yrotation Xrotation
				JOINT Head_virtual
				{
					OFFSET 0.000000 0.000000 0.000000
					CHANNELS 3 Zrotation Yrotation Xrotation
					JOINT Head
					{
						OFFSET 0.000000 0.927525 0.000000
						CHANNELS 3 Zrotation Yrotation Xrotation
						End Site
						{
							OFFSET 0.000000 0.000000 0.000000
						}
					}
				}
				JOINT LeftUpArm_virtual
				{
					OFFSET 0.000000 0.000000 0.000000
					CHANNELS 3 Zrotation Yrotation Xrotation
					JOINT LeftUpArm
					{
						OFFSET 1.248820 0.000000 0.000000
						CHANNELS 3 Zrotation Yrotation Xrotation
						JOINT LeftForeArm
						{
							OFFSET 2.597580 0.000000 0.000000
							CHANNELS 3 Zrotation Yrotation Xrotation
							JOINT LeftHand
							{
								OFFSET 2.455420 0.000000 0.000000
								CHANNELS 3 Zrotation Yrotation Xrotation
								End Site
								{
									OFFSET 0.000000 0.000000 0.000000
								}
							}
						}
					}
				}
				JOINT RightUpArm_virtual
				{
					OFFSET -0.000000 -0.000000 -0.000000
					CHANNELS 3 Zrotation Yrotation Xrotation
					JOINT RightUpArm
					{
						OFFSET -1.248820 -0.000000 -0.000000
						CHANNELS 3 Zrotation Yrotation Xrotation
						JOINT RightForeArm
						{
							OFFSET -2.597580 -0.000000 -0.000000
							CHANNELS 3 Zrotation Yrotation Xrotation
							JOINT RightHand
							{
								OFFSET -2.455420 -0.000000 -0.000000
								CHANNELS 3 Zrotation Yrotation Xrotation
								End Site
								{
									OFFSET 0.000000 0.000000 0.000000
								}
							}
						}
					}
				}
			}
		}
	}
	JOINT LeftUpLeg
	{
		OFFSET 1.271939 0.000000 0.000000
		CHANNELS 3 Zrotation Yrotation Xrotation
		JOINT LeftLowLeg
		{
			OFFSET 0.000000 -4.342910 0.000000
			CHANNELS 3 Zrotation Yrotation Xrotation
			JOINT LeftFoot
			{
				OFFSET 0.000000 -4.487670 0.000000
				CHANNELS 3 Zrotation Yrotation Xrotation
				JOINT LeftToeBase
				{
					OFFSET 0.000000 0.000000 1.515070
					CHANNELS 3 Zrotation Yrotation Xrotation
					End Site
					{
						OFFSET 0.000000 0.000000 0.000000
					}
				}
			}
		}
	}
	JOINT RightUpLeg
	{
		OFFSET -1.271939 0.000000 0.000000
		CHANNELS 3 Zrotation Yrotation Xrotation
		JOINT RightLowLeg
		{
			OFFSET 0.000000 -4.342910 0.000000
			CHANNELS 3 Zrotation Yrotation Xrotation
			JOINT RightFoot
			{
				OFFSET 0.000000 -4.487670 0.000000
				CHANNELS 3 Zrotation Yrotation Xrotation
				JOINT RightToeBase
				{
					OFFSET 0.000000 0.000000 1.515070
					CHANNELS 3 Zrotation Yrotation Xrotation
					End Site
					{
						OFFSET 0.000000 0.000000 0.000000
					}
				}
			}
		}
	}
}
MOTION
Frames: 11
Frame Time: 0.041667
-15.583350 8.972474 29.891811 177.999987 3.721904 176.539353 2.409674 0.241176 -14.840935 -6.757726 3.604546 19.060457 0.000000 0.000000 0.000000 9.704492 4.381813 14.492336 -8.862844 -4.817339 -84.506571 -26.333300 3.907930 5.976013 -45.014099 -5.785900 24.618401 0.000000 -19.714199 0.000000 12.095600 14.820400 -6.451390 31.206699 -4.145160 1.480011 47.544998 0.190613 13.541992 0.000000 21.315399 0.000000 1.678760 -9.310300 -14.458200 -5.894799 -8.146078 1.541225 0.000000 0.000000 14.787800 2.984798 14.144600 2.736629 0.000000 0.000000 -34.980400 2.598776 16.848829 -0.266875 0.000000 0.000000 20.750700 28.609813 -4.785778 -11.573205 0.000000 0.000000 -16.812600 
-15.580368 8.972448 29.891460 177.996302 3.748658 176.555736 2.399803 0.213430 -14.826705 -6.765983 3.571577 19.000715 0.000000 0.000000 0.000000 9.720356 4.425770 14.455284 -8.838410 -4.766738 -84.522909 -26.298300 3.912930 5.947998 -45.025600 -5.731720 24.747000 0.000000 -19.760500 0.000000 12.151400 14.832200 -6.331230 31.221100 -4.138430 1.506012 47.535999 0.150328 13.511993 0.000000 21.340200 0.000000 1.662700 -9.322210 -14.430600 -5.878636 -8.142204 1.516672 0.000000 0.000000 14.817100 2.952535 14.150013 2.717305 0.000000 0.000000 -34.965900 2.592905 16.773807 -0.282697 0.000000 0.000000 20.737301 28.593605 -4.698134 -11.528363 0.000000 0.000000 -16.815200 
-15.578693 8.972561 29.890856 177.986318 3.797632 176.596660 2.388964 0.215576 -14.854308 -6.760691 3.574696 18.953079 0.000000 0.000000 0.000000 9.742472 4.406221 14.456373 -8.845966 -4.765142 -84.549831 -26.285900 3.880030 5.941010 -45.045399 -5.677260 24.724199 0.000000 -19.752501 0.000000 12.195900 14.832100 -6.038780 31.216000 -4.128690 1.532990 47.543301 0.127959 13.447998 0.000000 21.326900 0.000000 1.706190 -9.310380 -14.427500 -5.870199 -8.095348 1.482405 0.000000 0.000000 14.815900 2.940252 14.145435 2.715703 0.000000 0.000000 -34.968399 2.573125 16.767338 -0.329353 0.000000 0.000000 20.733999 28.554953 -4.663610 -11.499590 0.000000 0.000000 -16.833120 
-15.575067 8.972430 29.890861 177.989906 3.881383 176.609078 2.391206 0.207710 -14.814100 -6.754418 3.549029 18.860733 0.000000 0.000000 0.000000 9.752470 4.409076 14.370585 -8.814951 -4.746754 -84.581937 -26.286400 3.874330 5.951996 -45.001701 -5.636100 25.024000 0.000000 -19.814699 0.000000 12.282800 14.853200 -6.123870 31.215401 -4.155550 1.528015 47.527199 0.125185 13.476990 0.000000 21.288700 0.000000 1.816830 -9.331040 -14.437900 -5.842006 -8.045365 1.468466 0.000000 0.000000 14.834800 2.898818 14.159693 2.682456 0.000000 0.000000 -34.952400 2.586209 16.777081 -0.363035 0.000000 0.000000 20.755600 28.555850 -4.591939 -11.471118 0.000000 0.000000 -16.835310 
-15.572140 8.972133 29.890576 178.007834 3.919329 176.626579 2.390197 0.174134 -14.779870 -6.732789 3.506504 18.761833 0.000000 0.000000 0.000000 9.766332 4.390018 14.331931 -8.795611 -4.748992 -84.615780 -26.272400 3.861690 5.971008 -45.068699 -5.637700 24.876200 0.000000 -19.690100 0.000000 12.093700 14.612000 -6.770840 31.202299 -4.160020 1.532990 47.518600 0.101673 13.509003 0.000000 21.280300 0.000000 1.887300 -9.338960 -14.511000 -5.807249 -8.040531 1.437707 0.000000 0.000000 14.881400 2.880456 14.187947 2.638951 0.000000 0.000000 -34.926399 2.610490 16.769026 -0.393872 0.000000 0.000000 20.773899 28.511960 -4.568750 -11.437330 0.000000 0.000000 -16.846110 
-15.569694 8.972060 29.889780 178.001247 3.958672 176.636880 2.375766 0.161854 -14.766960 -6.728312 3.493959 18.699543 0.000000 0.000000 0.000000 9.799425 4.358953 14.321381 -8.784996 -4.746595 -84.647093 -26.250900 3.848460 5.983002 -45.085999 -5.601190 24.941200 0.000000 -19.687799 0.000000 12.130200 14.577300 -6.704660 31.203100 -4.159660 1.533997 47.505501 0.069923 13.562988 0.000000 21.284500 0.000000 1.922310 -9.341360 -14.511100 -5.799976 -8.029519 1.428487 0.000000 0.000000 14.896800 2.846851 14.202115 2.622404 0.000000 0.000000 -34.922400 2.603790 16.716782 -0.416761 0.000000 0.000000 20.793600 28.469842 -4.503899 -11.404990 0.000000 0.000000 -16.852130 
-15.565074 8.972060 29.888433 178.013259 4.030735 176.650713 2.354776 0.124074 -14.745035 -6.680207 3.470277 18.604764 0.000000 0.000000 0.000000 9.778619 4.393881 14.324264 -8.731439 -4.765753 -84.735250 -26.207701 3.802710 5.993011 -45.156101 -5.526660 24.982300 0.000000 -19.662901 0.000000 12.214700 14.694100 -6.398580 31.175800 -4.145680 1.546997 47.502602 0.028089 13.609985 0.000000 21.268299 0.000000 1.917360 -9.384260 -14.495200 -5.766707 -8.027650 1.404061 0.000000 0.000000 14.959600 2.797288 14.259199 2.572816 0.000000 0.000000 -34.907600 2.624888 16.668762 -0.427698 0.000000 0.000000 20.777300 28.390972 -4.438435 -11.339054 0.000000 0.000000 -16.856060 
-15.561953 8.972230 29.887188 178.013094 4.093087 176.670978 2.324968 0.104506 -14.748926 -6.632600 3.472858 18.527157 0.000000 0.000000 0.000000 9.814263 4.342404 14.345677 -8.739905 -4.777892 -84.758723 -26.176201 3.727390 5.954010 -45.193298 -5.347550 25.024099 0.000000 -19.755899 0.000000 12.278400 14.765000 -6.335970 31.142401 -4.123050 1.588989 47.508099 -0.022505 13.614990 0.000000 21.297199 0.000000 1.890270 -9.379150 -14.447000 -5.748990 -8.015697 1.383873 0.000000 0.000000 14.988300 2.782963 14.295970 2.553834 0.000000 0.000000 -34.880400 2.636102 16.696543 -0.436356 0.000000 0.000000 20.754601 28.332648 -4.440288 -11.311797 0.000000 0.000000 -16.888520 
-15.559538 8.972444 29.886505 178.025050 4.143931 176.670379 2.309633 0.088933 -14.733618 -6.591709 3.473083 18.484173 0.000000 0.000000 0.000000 9.806038 4.348181 14.330190 -8.714483 -4.789207 -84.793796 -26.143101 3.766100 5.971985 -45.194801 -5.306760 25.225599 0.000000 -19.896900 0.000000 12.483100 14.825100 -6.067080 31.098101 -4.133370 1.601990 47.524799 -0.015241 13.699005 0.000000 21.305000 0.000000 1.872010 -9.333490 -14.037000 -5.718934 -7.957729 1.384313 0.000000 0.000000 15.009400 2.751104 14.279137 2.530114 0.000000 0.000000 -34.883301 2.660232 16.716838 -0.438448 0.000000 0.000000 20.752501 28.311243 -4.428885 -11.279019 0.000000 0.000000 -16.933460 
-15.557078 8.972748 29.885904 178.023731 4.209622 176.667009 2.277807 0.067404 -14.683810 -6.546180 3.467196 18.380144 0.000000 0.000000 0.000000 9.817461 4.312991 14.356660 -8.761632 -4.820849 -84.867238 -26.097200 3.756160 5.958008 -45.267502 -5.198680 25.156601 0.000000 -19.938000 0.000000 12.456900 14.706700 -6.271980 31.057600 -4.128820 1.638000 47.524799 -0.027003 13.783997 0.000000 21.312099 0.000000 1.823590 -9.318140 -14.227500 -5.698455 -7.873709 1.383667 0.000000 0.000000 15.031200 2.717741 14.246099 2.517465 0.000000 0.000000 -34.900600 2.673473 16.756319 -0.446806 0.000000 0.000000 20.768499 28.270045 -4.430294 -11.256872 0.000000 0.000000 -16.923570 
-15.552892 8.972914 29.884888 178.029421 4.305682 176.659440 2.231903 0.026569 -14.571802 -6.484331 3.428878 18.131284 0.000000 0.000000 0.000000 9.758709 4.392577 14.491644 -8.682023 -4.867654 -84.939775 -25.993700 3.787650 6.032990 -45.241299 -4.872640 25.577000 0.000000 -20.557501 0.000000 12.747500 14.794600 -6.208500 30.980700 -4.148300 1.751007 47.511299 -0.067900 14.010986 0.000000 21.467899 0.000000 1.778450 -9.382050 -13.868700 -5.652219 -7.729748 1.389528 0.000000 0.000000 15.067400 2.685290 14.172256 2.479408 0.000000 0.000000 -34.897100 2.710625 16.841504 -0.452436 0.000000 0.000000 20.787701 28.220050 -4.453933 -11.234767 0.000000 0.000000 -16.934810 
